<svg id="my-svg" width="100%" xmlns="http://www.w3.org/2000/svg" xmlns:xlink="http://www.w3.org/1999/xlink" class="flowchart" style="max-width: 3651.16px; background-color: white;" viewBox="0 0 3651.15625 434" role="graphics-document document" aria-roledescription="flowchart-v2"><style>#my-svg{font-family:"trebuchet ms",verdana,arial,sans-serif;font-size:16px;fill:#000000;}@keyframes edge-animation-frame{from{stroke-dashoffset:0;}}@keyframes dash{to{stroke-dashoffset:0;}}#my-svg .edge-animation-slow{stroke-dasharray:9,5!important;stroke-dashoffset:900;animation:dash 50s linear infinite;stroke-linecap:round;}#my-svg .edge-animation-fast{stroke-dasharray:9,5!important;stroke-dashoffset:900;animation:dash 20s linear infinite;stroke-linecap:round;}#my-svg .error-icon{fill:#552222;}#my-svg .error-text{fill:#552222;stroke:#552222;}#my-svg .edge-thickness-normal{stroke-width:1px;}#my-svg .edge-thickness-thick{stroke-width:3.5px;}#my-svg .edge-pattern-solid{stroke-dasharray:0;}#my-svg .edge-thickness-invisible{stroke-width:0;fill:none;}#my-svg .edge-pattern-dashed{stroke-dasharray:3;}#my-svg .edge-pattern-dotted{stroke-dasharray:2;}#my-svg .marker{fill:#666;stroke:#666;}#my-svg .marker.cross{stroke:#666;}#my-svg svg{font-family:"trebuchet ms",verdana,arial,sans-serif;font-size:16px;}#my-svg p{margin:0;}#my-svg .label{font-family:"trebuchet ms",verdana,arial,sans-serif;color:#000000;}#my-svg .cluster-label text{fill:#333;}#my-svg .cluster-label span{color:#333;}#my-svg .cluster-label span p{background-color:transparent;}#my-svg .label text,#my-svg span{fill:#000000;color:#000000;}#my-svg .node rect,#my-svg .node circle,#my-svg .node ellipse,#my-svg .node polygon,#my-svg .node path{fill:#eee;stroke:#999;stroke-width:1px;}#my-svg .rough-node .label text,#my-svg .node .label text,#my-svg .image-shape .label,#my-svg .icon-shape .label{text-anchor:middle;}#my-svg .node .katex path{fill:#000;stroke:#000;stroke-width:1px;}#my-svg .rough-node .label,#my-svg .node .label,#my-svg .image-shape .label,#my-svg .icon-shape .label{text-align:center;}#my-svg .node.clickable{cursor:pointer;}#my-svg .root .anchor path{fill:#666!important;stroke-width:0;stroke:#666;}#my-svg .arrowheadPath{fill:#333333;}#my-svg .edgePath .path{stroke:#666;stroke-width:1px;}#my-svg .flowchart-link{stroke:#666;fill:none;}#my-svg .edgeLabel{background-color:white;text-align:center;}#my-svg .edgeLabel p{background-color:white;}#my-svg .edgeLabel rect{opacity:0.5;background-color:white;fill:white;}#my-svg .labelBkg{background-color:rgba(255, 255, 255, 0.5);}#my-svg .cluster rect{fill:hsl(0, 0%, 98.9215686275%);stroke:#707070;stroke-width:1px;}#my-svg .cluster text{fill:#333;}#my-svg .cluster span{color:#333;}#my-svg div.mermaidTooltip{position:absolute;text-align:center;max-width:200px;padding:2px;font-family:"trebuchet ms",verdana,arial,sans-serif;font-size:12px;background:hsl(-160, 0%, 93.3333333333%);border:1px solid #707070;border-radius:2px;pointer-events:none;z-index:100;}#my-svg .flowchartTitleText{text-anchor:middle;font-size:18px;fill:#000000;}#my-svg rect.text{fill:none;stroke-width:0;}#my-svg .icon-shape,#my-svg .image-shape{background-color:white;text-align:center;}#my-svg .icon-shape p,#my-svg .image-shape p{background-color:white;padding:2px;}#my-svg .icon-shape .label rect,#my-svg .image-shape .label rect{opacity:0.5;background-color:white;fill:white;}#my-svg .label-icon{display:inline-block;height:1em;overflow:visible;vertical-align:-0.125em;}#my-svg .node .label-icon path{fill:currentColor;stroke:revert;stroke-width:revert;}#my-svg .node .neo-node{stroke:#999;}#my-svg [data-look="neo"].node rect,#my-svg [data-look="neo"].cluster rect,#my-svg [data-look="neo"].node polygon{stroke:url(#my-svg-gradient);filter:drop-shadow( 1px 2px 2px rgba(185,185,185,1));}#my-svg [data-look="neo"].swimlane.cluster rect{filter:none;}#my-svg [data-look="neo"].node path{stroke:url(#my-svg-gradient);stroke-width:1px;}#my-svg [data-look="neo"].node .outer-path{filter:drop-shadow( 1px 2px 2px rgba(185,185,185,1));}#my-svg [data-look="neo"].node .neo-line path{stroke:#999;filter:none;}#my-svg [data-look="neo"].node circle{stroke:url(#my-svg-gradient);filter:drop-shadow( 1px 2px 2px rgba(185,185,185,1));}#my-svg [data-look="neo"].node circle .state-start{fill:#000000;}#my-svg [data-look="neo"].icon-shape .icon{fill:url(#my-svg-gradient);filter:drop-shadow( 1px 2px 2px rgba(185,185,185,1));}#my-svg [data-look="neo"].icon-shape .icon-neo path{stroke:url(#my-svg-gradient);filter:drop-shadow( 1px 2px 2px rgba(185,185,185,1));}#my-svg :root{--mermaid-font-family:"trebuchet ms",verdana,arial,sans-serif;}</style><g><marker id="my-svg_flowchart-v2-pointEnd" class="marker flowchart-v2" viewBox="0 0 10 10" refX="5" refY="5" markerUnits="userSpaceOnUse" markerWidth="8" markerHeight="8" orient="auto"><path d="M 0 0 L 10 5 L 0 10 z" class="arrowMarkerPath" style="stroke-width: 1; stroke-dasharray: 1, 0;"/></marker><marker id="my-svg_flowchart-v2-pointStart" class="marker flowchart-v2" viewBox="0 0 10 10" refX="4.5" refY="5" markerUnits="userSpaceOnUse" markerWidth="8" markerHeight="8" orient="auto"><path d="M 0 5 L 10 10 L 10 0 z" class="arrowMarkerPath" style="stroke-width: 1; stroke-dasharray: 1, 0;"/></marker><marker id="my-svg_flowchart-v2-pointEnd-margin" class="marker flowchart-v2" viewBox="0 0 11.5 14" refX="11.5" refY="7" markerUnits="userSpaceOnUse" markerWidth="10.5" markerHeight="14" orient="auto"><path d="M 0 0 L 11.5 7 L 0 14 z" class="arrowMarkerPath" style="stroke-width: 0; stroke-dasharray: 1, 0;"/></marker><marker id="my-svg_flowchart-v2-pointStart-margin" class="marker flowchart-v2" viewBox="0 0 11.5 14" refX="1" refY="7" markerUnits="userSpaceOnUse" markerWidth="11.5" markerHeight="14" orient="auto"><polygon points="0,7 11.5,14 11.5,0" class="arrowMarkerPath" style="stroke-width: 0; stroke-dasharray: 1, 0;"/></marker><marker id="my-svg_flowchart-v2-circleEnd" class="marker flowchart-v2" viewBox="0 0 10 10" refX="11" refY="5" markerUnits="userSpaceOnUse" markerWidth="11" markerHeight="11" orient="auto"><circle cx="5" cy="5" r="5" class="arrowMarkerPath" style="stroke-width: 1; stroke-dasharray: 1, 0;"/></marker><marker id="my-svg_flowchart-v2-circleStart" class="marker flowchart-v2" viewBox="0 0 10 10" refX="-1" refY="5" markerUnits="userSpaceOnUse" markerWidth="11" markerHeight="11" orient="auto"><circle cx="5" cy="5" r="5" class="arrowMarkerPath" style="stroke-width: 1; stroke-dasharray: 1, 0;"/></marker><marker id="my-svg_flowchart-v2-circleEnd-margin" class="marker flowchart-v2" viewBox="0 0 10 10" refY="5" refX="12.25" markerUnits="userSpaceOnUse" markerWidth="14" markerHeight="14" orient="auto"><circle cx="5" cy="5" r="5" class="arrowMarkerPath" style="stroke-width: 0; stroke-dasharray: 1, 0;"/></marker><marker id="my-svg_flowchart-v2-circleStart-margin" class="marker flowchart-v2" viewBox="0 0 10 10" refX="-2" refY="5" markerUnits="userSpaceOnUse" markerWidth="14" markerHeight="14" orient="auto"><circle cx="5" cy="5" r="5" class="arrowMarkerPath" style="stroke-width: 0; stroke-dasharray: 1, 0;"/></marker><marker id="my-svg_flowchart-v2-crossEnd" class="marker cross flowchart-v2" viewBox="0 0 11 11" refX="12" refY="5.2" markerUnits="userSpaceOnUse" markerWidth="11" markerHeight="11" orient="auto"><path d="M 1,1 l 9,9 M 10,1 l -9,9" class="arrowMarkerPath" style="stroke-width: 2; stroke-dasharray: 1, 0;"/></marker><marker id="my-svg_flowchart-v2-crossStart" class="marker cross flowchart-v2" viewBox="0 0 11 11" refX="-1" refY="5.2" markerUnits="userSpaceOnUse" markerWidth="11" markerHeight="11" orient="auto"><path d="M 1,1 l 9,9 M 10,1 l -9,9" class="arrowMarkerPath" style="stroke-width: 2; stroke-dasharray: 1, 0;"/></marker><marker id="my-svg_flowchart-v2-crossEnd-margin" class="marker cross flowchart-v2" viewBox="0 0 15 15" refX="17.7" refY="7.5" markerUnits="userSpaceOnUse" markerWidth="12" markerHeight="12" orient="auto"><path d="M 1,1 L 14,14 M 1,14 L 14,1" class="arrowMarkerPath" style="stroke-width: 2.5;"/></marker><marker id="my-svg_flowchart-v2-crossStart-margin" class="marker cross flowchart-v2" viewBox="0 0 15 15" refX="-3.5" refY="7.5" markerUnits="userSpaceOnUse" markerWidth="12" markerHeight="12" orient="auto"><path d="M 1,1 L 14,14 M 1,14 L 14,1" class="arrowMarkerPath" style="stroke-width: 2.5; stroke-dasharray: 1, 0;"/></marker><g class="root"><g class="clusters"/><g class="edgePaths"><path d="M146.457,336L153.547,332.833C160.638,329.667,174.819,323.333,185.409,320.167C196,317,203,317,206.5,317L210,317" id="my-svg-L_P_N_0" class="edge-thickness-normal edge-pattern-solid edge-thickness-normal edge-pattern-solid flowchart-link" style=";" data-edge="true" data-et="edge" data-id="L_P_N_0" data-points="W3sieCI6MTQ2LjQ1NjUyMTczOTEzMDQ0LCJ5IjozMzZ9LHsieCI6MTg5LCJ5IjozMTd9LHsieCI6MjE0LCJ5IjozMTd9XQ==" data-look="classic" marker-end="url(#my-svg_flowchart-v2-pointEnd)"/><path d="M330.35,290L348.229,261.667C366.109,233.333,401.867,176.667,423.246,148.333C444.625,120,451.625,120,455.125,120L458.625,120" id="my-svg-L_N_A_0" class="edge-thickness-normal edge-pattern-solid edge-thickness-normal edge-pattern-solid flowchart-link" style=";" data-edge="true" data-et="edge" data-id="L_N_A_0" data-points="W3sieCI6MzMwLjM1MDI1MzgwNzEwNjYsInkiOjI5MH0seyJ4Ijo0MzcuNjI1LCJ5IjoxMjB9LHsieCI6NDYyLjYyNSwieSI6MTIwfV0=" data-look="classic" marker-end="url(#my-svg_flowchart-v2-pointEnd)"/><path d="M655.578,120L659.745,120C663.911,120,672.245,120,679.911,120C687.578,120,694.578,120,698.078,120L701.578,120" id="my-svg-L_A_C_0" class="edge-thickness-normal edge-pattern-solid edge-thickness-normal edge-pattern-solid flowchart-link" style=";" data-edge="true" data-et="edge" data-id="L_A_C_0" data-points="W3sieCI6NjU1LjU3ODEyNSwieSI6MTIwfSx7IngiOjY4MC41NzgxMjUsInkiOjEyMH0seyJ4Ijo3MDUuNTc4MTI1LCJ5IjoxMjB9XQ==" data-look="classic" marker-end="url(#my-svg_flowchart-v2-pointEnd)"/><path d="M827.245,91.667L842.8,82.222C858.356,72.778,889.467,53.889,918.541,44.444C947.615,35,974.651,35,988.169,35L1001.688,35" id="my-svg-L_C_Q_0" class="edge-thickness-normal edge-pattern-solid edge-thickness-normal edge-pattern-solid flowchart-link" style=";" data-edge="true" data-et="edge" data-id="L_C_Q_0" data-points="W3sieCI6ODI3LjI0NDc5MTY2NjY2NjYsInkiOjkxLjY2NjY2NjY2NjY2NjY3fSx7IngiOjkyMC41NzgxMjUsInkiOjM1fSx7IngiOjEwMDUuNjg3NSwieSI6MzV9XQ==" data-look="classic" marker-end="url(#my-svg_flowchart-v2-pointEnd)"/><path d="M846.616,128.962L858.943,130.635C871.27,132.308,895.924,135.654,924.122,137.327C952.32,139,984.063,139,999.934,139L1015.805,139" id="my-svg-L_C_T_0" class="edge-thickness-normal edge-pattern-solid edge-thickness-normal edge-pattern-solid flowchart-link" style=";" data-edge="true" data-et="edge" data-id="L_C_T_0" data-points="W3sieCI6ODQ2LjYxNTg2MDg0OTA1NjYsInkiOjEyOC45NjIyNjQxNTA5NDMzOH0seyJ4Ijo5MjAuNTc4MTI1LCJ5IjoxMzl9LHsieCI6MTAxOS44MDQ2ODc1LCJ5IjoxMzl9XQ==" data-look="classic" marker-end="url(#my-svg_flowchart-v2-pointEnd)"/><path d="M818.76,156.818L835.73,173.182C852.699,189.545,886.639,222.273,913.775,238.636C940.911,255,961.245,255,971.411,255L981.578,255" id="my-svg-L_C_R0_0" class="edge-thickness-normal edge-pattern-solid edge-thickness-normal edge-pattern-solid flowchart-link" style=";" data-edge="true" data-et="edge" data-id="L_C_R0_0" data-points="W3sieCI6ODE4Ljc1OTk0MzE4MTgxODEsInkiOjE1Ni44MTgxODE4MTgxODE4fSx7IngiOjkyMC41NzgxMjUsInkiOjI1NX0seyJ4Ijo5ODUuNTc4MTI1LCJ5IjoyNTV9XQ==" data-look="classic" marker-end="url(#my-svg_flowchart-v2-pointEnd)"/><path d="M1135.344,35L1142.862,35C1150.38,35,1165.417,35,1184.453,46.472C1203.488,57.944,1226.524,80.889,1238.041,92.361L1249.559,103.833" id="my-svg-L_Q_S_0" class="edge-thickness-normal edge-pattern-solid edge-thickness-normal edge-pattern-solid flowchart-link" style=";" data-edge="true" data-et="edge" data-id="L_Q_S_0" data-points="W3sieCI6MTEzNS4zNDM3NSwieSI6MzV9LHsieCI6MTE4MC40NTMxMjUsInkiOjM1fSx7IngiOjEyNTIuMzkzMDk0NzEwMTY3OCwieSI6MTA2LjY1NjI1fV0=" data-look="classic" marker-end="url(#my-svg_flowchart-v2-pointEnd)"/><path d="M1121.227,139L1131.098,139C1140.969,139,1160.711,139,1174.083,138.811C1187.455,138.622,1194.457,138.244,1197.958,138.056L1201.459,137.867" id="my-svg-L_T_S_0" class="edge-thickness-normal edge-pattern-solid edge-thickness-normal edge-pattern-solid flowchart-link" style=";" data-edge="true" data-et="edge" data-id="L_T_S_0" data-points="W3sieCI6MTEyMS4yMjY1NjI1LCJ5IjoxMzl9LHsieCI6MTE4MC40NTMxMjUsInkiOjEzOX0seyJ4IjoxMjA1LjQ1MzEyNSwieSI6MTM3LjY1MTIwNjgxNDk1NTAzfV0=" data-look="classic" marker-end="url(#my-svg_flowchart-v2-pointEnd)"/><path d="M1155.453,255L1159.62,255C1163.786,255,1172.12,255,1188.7,239.793C1205.279,224.585,1230.106,194.17,1242.519,178.963L1254.932,163.755" id="my-svg-L_R0_S_0" class="edge-thickness-normal edge-pattern-solid edge-thickness-normal edge-pattern-solid flowchart-link" style=";" data-edge="true" data-et="edge" data-id="L_R0_S_0" data-points="W3sieCI6MTE1NS40NTMxMjUsInkiOjI1NX0seyJ4IjoxMTgwLjQ1MzEyNSwieSI6MjU1fSx7IngiOjEyNTcuNDYxMjQxMzA4MjY2OCwieSI6MTYwLjY1NjI1fV0=" data-look="classic" marker-end="url(#my-svg_flowchart-v2-pointEnd)"/><path d="M1353.547,133.656L1357.714,133.656C1361.88,133.656,1370.214,133.656,1377.88,133.656C1385.547,133.656,1392.547,133.656,1396.047,133.656L1399.547,133.656" id="my-svg-L_S_E_0" class="edge-thickness-normal edge-pattern-solid edge-thickness-normal edge-pattern-solid flowchart-link" style=";" data-edge="true" data-et="edge" data-id="L_S_E_0" data-points="W3sieCI6MTM1My41NDY4NzUsInkiOjEzMy42NTYyNX0seyJ4IjoxMzc4LjU0Njg3NSwieSI6MTMzLjY1NjI1fSx7IngiOjE0MDMuNTQ2ODc1LCJ5IjoxMzMuNjU2MjV9XQ==" data-look="classic" marker-end="url(#my-svg_flowchart-v2-pointEnd)"/><path d="M1556.42,162.783L1578.327,173.095C1600.233,183.407,1644.046,204.032,1682.338,214.344C1720.63,224.656,1753.401,224.656,1769.786,224.656L1786.172,224.656" id="my-svg-L_E_F_0" class="edge-thickness-normal edge-pattern-solid edge-thickness-normal edge-pattern-solid flowchart-link" style=";" data-edge="true" data-et="edge" data-id="L_E_F_0" data-points="W3sieCI6MTU1Ni40MjA0NzM1OTMwOTczLCJ5IjoxNjIuNzgyNjUxNDA2OTAyNn0seyJ4IjoxNjg3Ljg1OTM3NSwieSI6MjI0LjY1NjI1fSx7IngiOjE3OTAuMTcxODc1LCJ5IjoyMjQuNjU2MjV9XQ==" data-look="classic" marker-end="url(#my-svg_flowchart-v2-pointEnd)"/><path d="M1563.448,111.558L1584.184,104.908C1604.919,98.257,1646.389,84.957,1701.312,78.307C1756.234,71.656,1824.609,71.656,1880.099,71.656C1935.589,71.656,1978.193,71.656,2010.394,77.188C2042.596,82.719,2064.395,93.783,2075.294,99.314L2086.194,104.846" id="my-svg-L_E_L_0" class="edge-thickness-normal edge-pattern-solid edge-thickness-normal edge-pattern-solid flowchart-link" style=";" data-edge="true" data-et="edge" data-id="L_E_L_0" data-points="W3sieCI6MTU2My40NDg0NjYxODcyNzA1LCJ5IjoxMTEuNTU3ODQxMTg3MjcwNX0seyJ4IjoxNjg3Ljg1OTM3NSwieSI6NzEuNjU2MjV9LHsieCI6MTg5Mi45ODQzNzUsInkiOjcxLjY1NjI1fSx7IngiOjIwMjAuNzk2ODc1LCJ5Ijo3MS42NTYyNX0seyJ4IjoyMDg5Ljc2MDQ1ODY2OTM1NDYsInkiOjEwNi42NTYyNX1d" data-look="classic" marker-end="url(#my-svg_flowchart-v2-pointEnd)"/><path d="M1995.797,224.656L1999.964,224.656C2004.13,224.656,2012.464,224.656,2030.415,214.388C2048.367,204.119,2075.937,183.583,2089.722,173.314L2103.507,163.046" id="my-svg-L_F_L_0" class="edge-thickness-normal edge-pattern-solid edge-thickness-normal edge-pattern-solid flowchart-link" style=";" data-edge="true" data-et="edge" data-id="L_F_L_0" data-points="W3sieCI6MTk5NS43OTY4NzUsInkiOjIyNC42NTYyNX0seyJ4IjoyMDIwLjc5Njg3NSwieSI6MjI0LjY1NjI1fSx7IngiOjIxMDYuNzE0NDU3NDE3NTgyMywieSI6MTYwLjY1NjI1fV0=" data-look="classic" marker-end="url(#my-svg_flowchart-v2-pointEnd)"/><path d="M2240.125,133.656L2244.292,133.656C2248.458,133.656,2256.792,133.656,2264.458,133.656C2272.125,133.656,2279.125,133.656,2282.625,133.656L2286.125,133.656" id="my-svg-L_L_R_0" class="edge-thickness-normal edge-pattern-solid edge-thickness-normal edge-pattern-solid flowchart-link" style=";" data-edge="true" data-et="edge" data-id="L_L_R_0" data-points="W3sieCI6MjI0MC4xMjUsInkiOjEzMy42NTYyNX0seyJ4IjoyMjY1LjEyNSwieSI6MTMzLjY1NjI1fSx7IngiOjIyOTAuMTI1LCJ5IjoxMzMuNjU2MjV9XQ==" data-look="classic" marker-end="url(#my-svg_flowchart-v2-pointEnd)"/><path d="M2524.719,133.656L2528.885,133.656C2533.052,133.656,2541.385,133.656,2549.052,133.656C2556.719,133.656,2563.719,133.656,2567.219,133.656L2570.719,133.656" id="my-svg-L_R_QF_0" class="edge-thickness-normal edge-pattern-solid edge-thickness-normal edge-pattern-solid flowchart-link" style=";" data-edge="true" data-et="edge" data-id="L_R_QF_0" data-points="W3sieCI6MjUyNC43MTg3NSwieSI6MTMzLjY1NjI1fSx7IngiOjI1NDkuNzE4NzUsInkiOjEzMy42NTYyNX0seyJ4IjoyNTc0LjcxODc1LCJ5IjoxMzMuNjU2MjV9XQ==" data-look="classic" marker-end="url(#my-svg_flowchart-v2-pointEnd)"/><path d="M2744.221,175.529L2756.7,183.717C2769.179,191.905,2794.136,208.28,2811.448,216.468C2828.76,224.656,2838.427,224.656,2843.26,224.656L2848.094,224.656" id="my-svg-L_QF_QA_0" class="edge-thickness-normal edge-pattern-solid edge-thickness-normal edge-pattern-solid flowchart-link" style=";" data-edge="true" data-et="edge" data-id="L_QF_QA_0" data-points="W3sieCI6Mjc0NC4yMjEzNjkwNDc2MTksInkiOjE3NS41Mjg2MzA5NTIzODA5NX0seyJ4IjoyODE5LjA5Mzc1LCJ5IjoyMjQuNjU2MjV9LHsieCI6Mjg1Mi4wOTM3NSwieSI6MjI0LjY1NjI1fV0=" data-look="classic" marker-end="url(#my-svg_flowchart-v2-pointEnd)"/><path d="M2753.443,101.005L2764.385,96.114C2775.326,91.222,2797.21,81.439,2832.634,76.548C2868.057,71.656,2917.021,71.656,2964.651,71.656C3012.281,71.656,3058.578,71.656,3099.015,106.284C3139.453,140.911,3174.03,210.166,3191.319,244.794L3208.608,279.421" id="my-svg-L_QF_D_0" class="edge-thickness-normal edge-pattern-solid edge-thickness-normal edge-pattern-solid flowchart-link" style=";" data-edge="true" data-et="edge" data-id="L_QF_D_0" data-points="W3sieCI6Mjc1My40NDI4NjI0MjYwMzU0LCJ5IjoxMDEuMDA1MzYyNDI2MDM1NX0seyJ4IjoyODE5LjA5Mzc1LCJ5Ijo3MS42NTYyNX0seyJ4IjoyOTY1Ljk4NDM3NSwieSI6NzEuNjU2MjV9LHsieCI6MzEwNC44NzUsInkiOjcxLjY1NjI1fSx7IngiOjMyMTAuMzk0NDcwMzAyODcxNSwieSI6MjgzfV0=" data-look="classic" marker-end="url(#my-svg_flowchart-v2-pointEnd)"/><path d="M3079.875,224.656L3084.042,224.656C3088.208,224.656,3096.542,224.656,3113.725,233.992C3130.909,243.327,3156.943,261.998,3169.96,271.333L3182.977,280.669" id="my-svg-L_QA_D_0" class="edge-thickness-normal edge-pattern-solid edge-thickness-normal edge-pattern-solid flowchart-link" style=";" data-edge="true" data-et="edge" data-id="L_QA_D_0" data-points="W3sieCI6MzA3OS44NzUsInkiOjIyNC42NTYyNX0seyJ4IjozMTA0Ljg3NSwieSI6MjI0LjY1NjI1fSx7IngiOjMxODYuMjI3MjUxOTIyMzczLCJ5IjoyODN9XQ==" data-look="classic" marker-end="url(#my-svg_flowchart-v2-pointEnd)"/><path d="M3137.037,337L3131.677,338.667C3126.316,340.333,3115.596,343.667,3087.087,345.333C3058.578,347,3012.281,347,2964.651,347C2917.021,347,2868.057,347,2820.461,347C2772.865,347,2726.635,347,2681.74,347C2636.844,347,2593.281,347,2547.784,347C2502.286,347,2454.854,347,2407.422,347C2359.99,347,2312.557,347,2268.48,347C2224.404,347,2183.682,347,2142.961,347C2102.24,347,2061.518,347,2019.855,347C1978.193,347,1935.589,347,1880.099,347C1824.609,347,1756.234,347,1689.828,347C1623.422,347,1558.984,347,1507.432,347C1455.88,347,1417.214,347,1381.372,347C1345.531,347,1312.516,347,1279.5,347C1246.484,347,1213.469,347,1178.638,347C1143.807,347,1107.161,347,1063.849,347C1020.536,347,970.557,347,922.234,347C873.911,347,827.245,347,787.245,347C747.245,347,713.911,347,676.999,347C640.086,347,599.594,347,559.102,347C518.609,347,478.117,347,454.352,346.151C430.588,345.302,423.551,343.603,420.032,342.754L416.513,341.905" id="my-svg-L_D_N_0" class="edge-thickness-normal edge-pattern-solid edge-thickness-normal edge-pattern-solid flowchart-link" style=";" data-edge="true" data-et="edge" data-id="L_D_N_0" data-points="W3sieCI6MzEzNy4wMzcxNjIxNjIxNjIsInkiOjMzN30seyJ4IjozMTA0Ljg3NSwieSI6MzQ3fSx7IngiOjI5NjUuOTg0Mzc1LCJ5IjozNDd9LHsieCI6MjgxOS4wOTM3NSwieSI6MzQ3fSx7IngiOjI2ODAuNDA2MjUsInkiOjM0N30seyJ4IjoyNTQ5LjcxODc1LCJ5IjozNDd9LHsieCI6MjQwNy40MjE4NzUsInkiOjM0N30seyJ4IjoyMjY1LjEyNSwieSI6MzQ3fSx7IngiOjIxNDIuOTYwOTM3NSwieSI6MzQ3fSx7IngiOjIwMjAuNzk2ODc1LCJ5IjozNDd9LHsieCI6MTg5Mi45ODQzNzUsInkiOjM0N30seyJ4IjoxNjg3Ljg1OTM3NSwieSI6MzQ3fSx7IngiOjE0OTQuNTQ2ODc1LCJ5IjozNDd9LHsieCI6MTM3OC41NDY4NzUsInkiOjM0N30seyJ4IjoxMjc5LjUsInkiOjM0N30seyJ4IjoxMTgwLjQ1MzEyNSwieSI6MzQ3fSx7IngiOjEwNzAuNTE1NjI1LCJ5IjozNDd9LHsieCI6OTIwLjU3ODEyNSwieSI6MzQ3fSx7IngiOjc4MC41NzgxMjUsInkiOjM0N30seyJ4Ijo2ODAuNTc4MTI1LCJ5IjozNDd9LHsieCI6NTU5LjEwMTU2MjUsInkiOjM0N30seyJ4Ijo0MzcuNjI1LCJ5IjozNDd9LHsieCI6NDEyLjYyNSwieSI6MzQwLjk2NjgxNzQ5NjIyOTN9XQ==" data-look="classic" marker-end="url(#my-svg_flowchart-v2-pointEnd)"/><path d="M3317.875,310L3328.708,310C3339.542,310,3361.208,310,3382.235,312.946C3403.261,315.891,3423.646,321.782,3433.839,324.728L3444.032,327.673" id="my-svg-L_D_PR_0" class="edge-thickness-normal edge-pattern-solid edge-thickness-normal edge-pattern-solid flowchart-link" style=";" data-edge="true" data-et="edge" data-id="L_D_PR_0" data-points="W3sieCI6MzMxNy44NzUsInkiOjMxMH0seyJ4IjozMzgyLjg3NSwieSI6MzEwfSx7IngiOjM0NDcuODc1LCJ5IjozMjguNzgzNzQ0ODM2MTk5NDV9XQ==" data-look="classic" marker-end="url(#my-svg_flowchart-v2-pointEnd)"/><path d="M3453.588,396L3441.803,401C3430.017,406,3406.446,416,3368.161,421C3329.875,426,3276.875,426,3230.542,426C3184.208,426,3144.542,426,3101.56,426C3058.578,426,3012.281,426,2964.651,426C2917.021,426,2868.057,426,2820.461,426C2772.865,426,2726.635,426,2681.74,426C2636.844,426,2593.281,426,2547.784,426C2502.286,426,2454.854,426,2407.422,426C2359.99,426,2312.557,426,2268.48,426C2224.404,426,2183.682,426,2142.961,426C2102.24,426,2061.518,426,2019.855,426C1978.193,426,1935.589,426,1880.099,426C1824.609,426,1756.234,426,1689.828,426C1623.422,426,1558.984,426,1507.432,426C1455.88,426,1417.214,426,1381.372,426C1345.531,426,1312.516,426,1279.5,426C1246.484,426,1213.469,426,1178.638,426C1143.807,426,1107.161,426,1063.849,426C1020.536,426,970.557,426,922.234,426C873.911,426,827.245,426,787.245,426C747.245,426,713.911,426,676.999,426C640.086,426,599.594,426,559.102,426C518.609,426,478.117,426,442.786,412.773C407.454,399.546,377.284,373.091,362.198,359.864L347.113,346.637" id="my-svg-L_PR_N_0" class="edge-thickness-normal edge-pattern-solid edge-thickness-normal edge-pattern-solid flowchart-link" style=";" data-edge="true" data-et="edge" data-id="L_PR_N_0" data-points="W3sieCI6MzQ1My41ODgzMTUyMTczOTE1LCJ5IjozOTZ9LHsieCI6MzM4Mi44NzUsInkiOjQyNn0seyJ4IjozMjIzLjg3NSwieSI6NDI2fSx7IngiOjMxMDQuODc1LCJ5Ijo0MjZ9LHsieCI6Mjk2NS45ODQzNzUsInkiOjQyNn0seyJ4IjoyODE5LjA5Mzc1LCJ5Ijo0MjZ9LHsieCI6MjY4MC40MDYyNSwieSI6NDI2fSx7IngiOjI1NDkuNzE4NzUsInkiOjQyNn0seyJ4IjoyNDA3LjQyMTg3NSwieSI6NDI2fSx7IngiOjIyNjUuMTI1LCJ5Ijo0MjZ9LHsieCI6MjE0Mi45NjA5Mzc1LCJ5Ijo0MjZ9LHsieCI6MjAyMC43OTY4NzUsInkiOjQyNn0seyJ4IjoxODkyLjk4NDM3NSwieSI6NDI2fSx7IngiOjE2ODcuODU5Mzc1LCJ5Ijo0MjZ9LHsieCI6MTQ5NC41NDY4NzUsInkiOjQyNn0seyJ4IjoxMzc4LjU0Njg3NSwieSI6NDI2fSx7IngiOjEyNzkuNSwieSI6NDI2fSx7IngiOjExODAuNDUzMTI1LCJ5Ijo0MjZ9LHsieCI6MTA3MC41MTU2MjUsInkiOjQyNn0seyJ4Ijo5MjAuNTc4MTI1LCJ5Ijo0MjZ9LHsieCI6NzgwLjU3ODEyNSwieSI6NDI2fSx7IngiOjY4MC41NzgxMjUsInkiOjQyNn0seyJ4Ijo1NTkuMTAxNTYyNSwieSI6NDI2fSx7IngiOjQzNy42MjUsInkiOjQyNn0seyJ4IjozNDQuMTA1NTA0NTg3MTU1OTYsInkiOjM0NH1d" data-look="classic" marker-end="url(#my-svg_flowchart-v2-pointEnd)"/><path d="M3185.625,337L3172.167,346.5C3158.708,356,3131.792,375,3095.185,384.5C3058.578,394,3012.281,394,2964.651,394C2917.021,394,2868.057,394,2820.461,394C2772.865,394,2726.635,394,2681.74,394C2636.844,394,2593.281,394,2547.784,394C2502.286,394,2454.854,394,2407.422,394C2359.99,394,2312.557,394,2268.48,394C2224.404,394,2183.682,394,2142.961,394C2102.24,394,2061.518,394,2019.855,394C1978.193,394,1935.589,394,1880.099,394C1824.609,394,1756.234,394,1689.828,394C1623.422,394,1558.984,394,1507.432,394C1455.88,394,1417.214,394,1381.372,394C1345.531,394,1312.516,394,1279.5,394C1246.484,394,1213.469,394,1178.638,394C1143.807,394,1107.161,394,1063.849,394C1020.536,394,970.557,394,922.234,394C873.911,394,827.245,394,787.245,394C747.245,394,713.911,394,676.999,394C640.086,394,599.594,394,559.102,394C518.609,394,478.117,394,437.152,394C396.188,394,354.75,394,313.313,394C271.875,394,230.438,394,206.19,392.938C181.943,391.876,174.887,389.752,171.359,388.69L167.83,387.629" id="my-svg-L_D_P_0" class="edge-thickness-normal edge-pattern-solid edge-thickness-normal edge-pattern-solid flowchart-link" style=";" data-edge="true" data-et="edge" data-id="L_D_P_0" data-points="W3sieCI6MzE4NS42MjUsInkiOjMzN30seyJ4IjozMTA0Ljg3NSwieSI6Mzk0fSx7IngiOjI5NjUuOTg0Mzc1LCJ5IjozOTR9LHsieCI6MjgxOS4wOTM3NSwieSI6Mzk0fSx7IngiOjI2ODAuNDA2MjUsInkiOjM5NH0seyJ4IjoyNTQ5LjcxODc1LCJ5IjozOTR9LHsieCI6MjQwNy40MjE4NzUsInkiOjM5NH0seyJ4IjoyMjY1LjEyNSwieSI6Mzk0fSx7IngiOjIxNDIuOTYwOTM3NSwieSI6Mzk0fSx7IngiOjIwMjAuNzk2ODc1LCJ5IjozOTR9LHsieCI6MTg5Mi45ODQzNzUsInkiOjM5NH0seyJ4IjoxNjg3Ljg1OTM3NSwieSI6Mzk0fSx7IngiOjE0OTQuNTQ2ODc1LCJ5IjozOTR9LHsieCI6MTM3OC41NDY4NzUsInkiOjM5NH0seyJ4IjoxMjc5LjUsInkiOjM5NH0seyJ4IjoxMTgwLjQ1MzEyNSwieSI6Mzk0fSx7IngiOjEwNzAuNTE1NjI1LCJ5IjozOTR9LHsieCI6OTIwLjU3ODEyNSwieSI6Mzk0fSx7IngiOjc4MC41NzgxMjUsInkiOjM5NH0seyJ4Ijo2ODAuNTc4MTI1LCJ5IjozOTR9LHsieCI6NTU5LjEwMTU2MjUsInkiOjM5NH0seyJ4Ijo0MzcuNjI1LCJ5IjozOTR9LHsieCI6MzEzLjMxMjUsInkiOjM5NH0seyJ4IjoxODksInkiOjM5NH0seyJ4IjoxNjQsInkiOjM4Ni40NzU3MjgxNTUzMzk4fV0=" data-look="classic" marker-end="url(#my-svg_flowchart-v2-pointEnd)"/></g><g class="edgeLabels"><g class="edgeLabel"><g class="label" data-id="L_P_N_0" transform="translate(0, 0)"><foreignObject width="0" height="0"><div xmlns="http://www.w3.org/1999/xhtml" class="labelBkg" style="display: table-cell; white-space: nowrap; line-height: 1.5; max-width: 200px; text-align: center;"><span class="edgeLabel"></span></div></foreignObject></g></g><g class="edgeLabel"><g class="label" data-id="L_N_A_0" transform="translate(0, 0)"><foreignObject width="0" height="0"><div xmlns="http://www.w3.org/1999/xhtml" class="labelBkg" style="display: table-cell; white-space: nowrap; line-height: 1.5; max-width: 200px; text-align: center;"><span class="edgeLabel"></span></div></foreignObject></g></g><g class="edgeLabel"><g class="label" data-id="L_A_C_0" transform="translate(0, 0)"><foreignObject width="0" height="0"><div xmlns="http://www.w3.org/1999/xhtml" class="labelBkg" style="display: table-cell; white-space: nowrap; line-height: 1.5; max-width: 200px; text-align: center;"><span class="edgeLabel"></span></div></foreignObject></g></g><g class="edgeLabel" transform="translate(920.578125, 35)"><g class="label" data-id="L_C_Q_0" transform="translate(-34.8046875, -12)"><foreignObject width="69.609375" height="24"><div xmlns="http://www.w3.org/1999/xhtml" class="labelBkg" style="display: table-cell; white-space: nowrap; line-height: 1.5; max-width: 200px; text-align: center;"><span class="edgeLabel"><p>30 秒补记</p></span></div></foreignObject></g></g><g class="edgeLabel" transform="translate(920.578125, 139)"><g class="label" data-id="L_C_T_0" transform="translate(-32, -12)"><foreignObject width="64" height="24"><div xmlns="http://www.w3.org/1999/xhtml" class="labelBkg" style="display: table-cell; white-space: nowrap; line-height: 1.5; max-width: 200px; text-align: center;"><span class="edgeLabel"><p>专注学习</p></span></div></foreignObject></g></g><g class="edgeLabel" transform="translate(920.578125, 255)"><g class="label" data-id="L_C_R0_0" transform="translate(-40, -12)"><foreignObject width="80" height="24"><div xmlns="http://www.w3.org/1999/xhtml" class="labelBkg" style="display: table-cell; white-space: nowrap; line-height: 1.5; max-width: 200px; text-align: center;"><span class="edgeLabel"><p>按例程执行</p></span></div></foreignObject></g></g><g class="edgeLabel"><g class="label" data-id="L_Q_S_0" transform="translate(0, 0)"><foreignObject width="0" height="0"><div xmlns="http://www.w3.org/1999/xhtml" class="labelBkg" style="display: table-cell; white-space: nowrap; line-height: 1.5; max-width: 200px; text-align: center;"><span class="edgeLabel"></span></div></foreignObject></g></g><g class="edgeLabel"><g class="label" data-id="L_T_S_0" transform="translate(0, 0)"><foreignObject width="0" height="0"><div xmlns="http://www.w3.org/1999/xhtml" class="labelBkg" style="display: table-cell; white-space: nowrap; line-height: 1.5; max-width: 200px; text-align: center;"><span class="edgeLabel"></span></div></foreignObject></g></g><g class="edgeLabel"><g class="label" data-id="L_R0_S_0" transform="translate(0, 0)"><foreignObject width="0" height="0"><div xmlns="http://www.w3.org/1999/xhtml" class="labelBkg" style="display: table-cell; white-space: nowrap; line-height: 1.5; max-width: 200px; text-align: center;"><span class="edgeLabel"></span></div></foreignObject></g></g><g class="edgeLabel"><g class="label" data-id="L_S_E_0" transform="translate(0, 0)"><foreignObject width="0" height="0"><div xmlns="http://www.w3.org/1999/xhtml" class="labelBkg" style="display: table-cell; white-space: nowrap; line-height: 1.5; max-width: 200px; text-align: center;"><span class="edgeLabel"></span></div></foreignObject></g></g><g class="edgeLabel" transform="translate(1687.859375, 224.65625)"><g class="label" data-id="L_E_F_0" transform="translate(-8, -12)"><foreignObject width="16" height="24"><div xmlns="http://www.w3.org/1999/xhtml" class="labelBkg" style="display: table-cell; white-space: nowrap; line-height: 1.5; max-width: 200px; text-align: center;"><span class="edgeLabel"><p>是</p></span></div></foreignObject></g></g><g class="edgeLabel" transform="translate(1892.984375, 71.65625)"><g class="label" data-id="L_E_L_0" transform="translate(-16, -12)"><foreignObject width="32" height="24"><div xmlns="http://www.w3.org/1999/xhtml" class="labelBkg" style="display: table-cell; white-space: nowrap; line-height: 1.5; max-width: 200px; text-align: center;"><span class="edgeLabel"><p>暂不</p></span></div></foreignObject></g></g><g class="edgeLabel"><g class="label" data-id="L_F_L_0" transform="translate(0, 0)"><foreignObject width="0" height="0"><div xmlns="http://www.w3.org/1999/xhtml" class="labelBkg" style="display: table-cell; white-space: nowrap; line-height: 1.5; max-width: 200px; text-align: center;"><span class="edgeLabel"></span></div></foreignObject></g></g><g class="edgeLabel"><g class="label" data-id="L_L_R_0" transform="translate(0, 0)"><foreignObject width="0" height="0"><div xmlns="http://www.w3.org/1999/xhtml" class="labelBkg" style="display: table-cell; white-space: nowrap; line-height: 1.5; max-width: 200px; text-align: center;"><span class="edgeLabel"></span></div></foreignObject></g></g><g class="edgeLabel"><g class="label" data-id="L_R_QF_0" transform="translate(0, 0)"><foreignObject width="0" height="0"><div xmlns="http://www.w3.org/1999/xhtml" class="labelBkg" style="display: table-cell; white-space: nowrap; line-height: 1.5; max-width: 200px; text-align: center;"><span class="edgeLabel"></span></div></foreignObject></g></g><g class="edgeLabel" transform="translate(2819.09375, 224.65625)"><g class="label" data-id="L_QF_QA_0" transform="translate(-8, -12)"><foreignObject width="16" height="24"><div xmlns="http://www.w3.org/1999/xhtml" class="labelBkg" style="display: table-cell; white-space: nowrap; line-height: 1.5; max-width: 200px; text-align: center;"><span class="edgeLabel"><p>是</p></span></div></foreignObject></g></g><g class="edgeLabel" transform="translate(2965.984375, 71.65625)"><g class="label" data-id="L_QF_D_0" transform="translate(-8, -12)"><foreignObject width="16" height="24"><div xmlns="http://www.w3.org/1999/xhtml" class="labelBkg" style="display: table-cell; white-space: nowrap; line-height: 1.5; max-width: 200px; text-align: center;"><span class="edgeLabel"><p>否</p></span></div></foreignObject></g></g><g class="edgeLabel"><g class="label" data-id="L_QA_D_0" transform="translate(0, 0)"><foreignObject width="0" height="0"><div xmlns="http://www.w3.org/1999/xhtml" class="labelBkg" style="display: table-cell; white-space: nowrap; line-height: 1.5; max-width: 200px; text-align: center;"><span class="edgeLabel"></span></div></foreignObject></g></g><g class="edgeLabel" transform="translate(1687.859375, 347)"><g class="label" data-id="L_D_N_0" transform="translate(-77.3125, -12)"><foreignObject width="154.625" height="24"><div xmlns="http://www.w3.org/1999/xhtml" class="labelBkg" style="display: table-cell; white-space: nowrap; line-height: 1.5; max-width: 200px; text-align: center;"><span class="edgeLabel"><p>继续或更新 Next Step</p></span></div></foreignObject></g></g><g class="edgeLabel" transform="translate(3382.875, 310)"><g class="label" data-id="L_D_PR_0" transform="translate(-40, -12)"><foreignObject width="80" height="24"><div xmlns="http://www.w3.org/1999/xhtml" class="labelBkg" style="display: table-cell; white-space: nowrap; line-height: 1.5; max-width: 200px; text-align: center;"><span class="edgeLabel"><p>结构性调整</p></span></div></foreignObject></g></g><g class="edgeLabel"><g class="label" data-id="L_PR_N_0" transform="translate(0, 0)"><foreignObject width="0" height="0"><div xmlns="http://www.w3.org/1999/xhtml" class="labelBkg" style="display: table-cell; white-space: nowrap; line-height: 1.5; max-width: 200px; text-align: center;"><span class="edgeLabel"></span></div></foreignObject></g></g><g class="edgeLabel" transform="translate(1494.546875, 394)"><g class="label" data-id="L_D_P_0" transform="translate(-53.875, -12)"><foreignObject width="107.75" height="24"><div xmlns="http://www.w3.org/1999/xhtml" class="labelBkg" style="display: table-cell; white-space: nowrap; line-height: 1.5; max-width: 200px; text-align: center;"><span class="edgeLabel"><p>暂停·完成·放弃</p></span></div></foreignObject></g></g></g><g class="nodes"><g class="node default" id="my-svg-flowchart-P-0" data-look="classic" transform="translate(86, 363)"><rect class="basic label-container" style="" x="-78" y="-27" width="156" height="54"/><g class="label" style="" transform="translate(-48, -12)"><rect/><foreignObject width="96" height="24"><div xmlns="http://www.w3.org/1999/xhtml" style="display: table-cell; white-space: nowrap; line-height: 1.5; max-width: 200px; text-align: center;"><span class="nodeLabel"><p>选择学习项目</p></span></div></foreignObject></g></g><g class="node default" id="my-svg-flowchart-N-1" data-look="classic" transform="translate(313.3125, 317)"><rect class="basic label-container" style="" x="-99.3125" y="-27" width="198.625" height="54"/><g class="label" style="" transform="translate(-69.3125, -12)"><rect/><foreignObject width="138.625" height="24"><div xmlns="http://www.w3.org/1999/xhtml" style="display: table-cell; white-space: nowrap; line-height: 1.5; max-width: 200px; text-align: center;"><span class="nodeLabel"><p>明确唯一 Next Step</p></span></div></foreignObject></g></g><g class="node default" id="my-svg-flowchart-A-3" data-look="classic" transform="translate(559.1015625, 120)"><rect class="basic label-container" style="" x="-96.4765625" y="-39" width="192.953125" height="78"/><g class="label" style="" transform="translate(-66.4765625, -24)"><rect/><foreignObject width="132.953125" height="48"><div xmlns="http://www.w3.org/1999/xhtml" style="display: table-cell; white-space: nowrap; line-height: 1.5; max-width: 200px; text-align: center;"><span class="nodeLabel"><p>Today Agenda<br />Up Next·Carryover</p></span></div></foreignObject></g></g><g class="node default" id="my-svg-flowchart-C-5" data-look="classic" transform="translate(780.578125, 120)"><polygon points="75,0 150,-75 75,-150 0,-75" class="label-container" transform="translate(-74.5, 75)"/><g class="label" style="" transform="translate(-48, -12)"><rect/><foreignObject width="96" height="24"><div xmlns="http://www.w3.org/1999/xhtml" style="display: table-cell; white-space: nowrap; line-height: 1.5; max-width: 200px; text-align: center;"><span class="nodeLabel"><p>选择记录方式</p></span></div></foreignObject></g></g><g class="node default" id="my-svg-flowchart-Q-7" data-look="classic" transform="translate(1070.515625, 35)"><rect class="basic label-container" style="" x="-64.828125" y="-27" width="129.65625" height="54"/><g class="label" style="" transform="translate(-34.828125, -12)"><rect/><foreignObject width="69.65625" height="24"><div xmlns="http://www.w3.org/1999/xhtml" style="display: table-cell; white-space: nowrap; line-height: 1.5; max-width: 200px; text-align: center;"><span class="nodeLabel"><p>Quick Log</p></span></div></foreignObject></g></g><g class="node default" id="my-svg-flowchart-T-9" data-look="classic" transform="translate(1070.515625, 139)"><rect class="basic label-container" style="" x="-50.7109375" y="-27" width="101.421875" height="54"/><g class="label" style="" transform="translate(-20.7109375, -12)"><rect/><foreignObject width="41.421875" height="24"><div xmlns="http://www.w3.org/1999/xhtml" style="display: table-cell; white-space: nowrap; line-height: 1.5; max-width: 200px; text-align: center;"><span class="nodeLabel"><p>Timer</p></span></div></foreignObject></g></g><g class="node default" id="my-svg-flowchart-R0-11" data-look="classic" transform="translate(1070.515625, 255)"><rect class="basic label-container" style="" x="-84.9375" y="-39" width="169.875" height="78"/><g class="label" style="" transform="translate(-54.9375, -24)"><rect/><foreignObject width="109.875" height="48"><div xmlns="http://www.w3.org/1999/xhtml" style="display: table-cell; white-space: nowrap; line-height: 1.5; max-width: 200px; text-align: center;"><span class="nodeLabel"><p>Practice Blocks<br />Guided Routine</p></span></div></foreignObject></g></g><g class="node default" id="my-svg-flowchart-S-13" data-look="classic" transform="translate(1279.5, 133.65625)"><rect class="basic label-container" style="" x="-74.046875" y="-27" width="148.09375" height="54"/><g class="label" style="" transform="translate(-44.046875, -12)"><rect/><foreignObject width="88.09375" height="24"><div xmlns="http://www.w3.org/1999/xhtml" style="display: table-cell; white-space: nowrap; line-height: 1.5; max-width: 200px; text-align: center;"><span class="nodeLabel"><p>生成 Session</p></span></div></foreignObject></g></g><g class="node default" id="my-svg-flowchart-E-19" data-look="classic" transform="translate(1494.546875, 133.65625)"><polygon points="91,0 182,-91 91,-182 0,-91" class="label-container" transform="translate(-90.5, 91)"/><g class="label" style="" transform="translate(-64, -12)"><rect/><foreignObject width="128" height="24"><div xmlns="http://www.w3.org/1999/xhtml" style="display: table-cell; white-space: nowrap; line-height: 1.5; max-width: 200px; text-align: center;"><span class="nodeLabel"><p>是否留下学习证据</p></span></div></foreignObject></g></g><g class="node default" id="my-svg-flowchart-F-21" data-look="classic" transform="translate(1892.984375, 224.65625)"><rect class="basic label-container" style="" x="-102.8125" y="-39" width="205.625" height="78"/><g class="label" style="" transform="translate(-72.8125, -24)"><rect/><foreignObject width="145.625" height="48"><div xmlns="http://www.w3.org/1999/xhtml" style="display: table-cell; white-space: nowrap; line-height: 1.5; max-width: 200px; text-align: center;"><span class="nodeLabel"><p>添加 Proof<br />图片·录音·文件·链接</p></span></div></foreignObject></g></g><g class="node default" id="my-svg-flowchart-L-23" data-look="classic" transform="translate(2142.9609375, 133.65625)"><rect class="basic label-container" style="" x="-97.1640625" y="-27" width="194.328125" height="54"/><g class="label" style="" transform="translate(-67.1640625, -12)"><rect/><foreignObject width="134.328125" height="24"><div xmlns="http://www.w3.org/1999/xhtml" style="display: table-cell; white-space: nowrap; line-height: 1.5; max-width: 200px; text-align: center;"><span class="nodeLabel"><p>写入 Learning Trail</p></span></div></foreignObject></g></g><g class="node default" id="my-svg-flowchart-R-27" data-look="classic" transform="translate(2407.421875, 133.65625)"><rect class="basic label-container" style="" x="-117.296875" y="-39" width="234.59375" height="78"/><g class="label" style="" transform="translate(-87.296875, -24)"><rect/><foreignObject width="174.59375" height="48"><div xmlns="http://www.w3.org/1999/xhtml" style="display: table-cell; white-space: nowrap; line-height: 1.5; max-width: 200px; text-align: center;"><span class="nodeLabel"><p>Weekly / Stage Review<br />Facts·Patterns·Decisions</p></span></div></foreignObject></g></g><g class="node default" id="my-svg-flowchart-QF-29" data-look="classic" transform="translate(2680.40625, 133.65625)"><polygon points="105.6875,0 211.375,-105.6875 105.6875,-211.375 0,-105.6875" class="label-container" transform="translate(-105.1875, 105.6875)"/><g class="label" style="" transform="translate(-78.6875, -12)"><rect/><foreignObject width="157.375" height="24"><div xmlns="http://www.w3.org/1999/xhtml" style="display: table-cell; white-space: nowrap; line-height: 1.5; max-width: 200px; text-align: center;"><span class="nodeLabel"><p>需要 Qualifying Proof?</p></span></div></foreignObject></g></g><g class="node default" id="my-svg-flowchart-QA-31" data-look="classic" transform="translate(2965.984375, 224.65625)"><rect class="basic label-container" style="" x="-113.890625" y="-39" width="227.78125" height="78"/><g class="label" style="" transform="translate(-83.890625, -24)"><rect/><foreignObject width="167.78125" height="48"><div xmlns="http://www.w3.org/1999/xhtml" style="display: table-cell; white-space: nowrap; line-height: 1.5; max-width: 200px; text-align: center;"><span class="nodeLabel"><p>验收 Evidence Contract<br />Proof Revision</p></span></div></foreignObject></g></g><g class="node default" id="my-svg-flowchart-D-33" data-look="classic" transform="translate(3223.875, 310)"><rect class="basic label-container" style="" x="-94" y="-27" width="188" height="54"/><g class="label" style="" transform="translate(-64, -12)"><rect/><foreignObject width="128" height="24"><div xmlns="http://www.w3.org/1999/xhtml" style="display: table-cell; white-space: nowrap; line-height: 1.5; max-width: 200px; text-align: center;"><span class="nodeLabel"><p>用户明确确认决定</p></span></div></foreignObject></g></g><g class="node default" id="my-svg-flowchart-PR-39" data-look="classic" transform="translate(3545.515625, 357)"><rect class="basic label-container" style="" x="-97.640625" y="-39" width="195.28125" height="78"/><g class="label" style="" transform="translate(-67.640625, -24)"><rect/><foreignObject width="135.28125" height="48"><div xmlns="http://www.w3.org/1999/xhtml" style="display: table-cell; white-space: nowrap; line-height: 1.5; max-width: 200px; text-align: center;"><span class="nodeLabel"><p>Plan Revision Draft<br />Revision Guard</p></span></div></foreignObject></g></g></g></g></g><defs><filter id="my-svg-drop-shadow" height="130%" width="130%"><feDropShadow dx="4" dy="4" stdDeviation="0" flood-opacity="0.06" flood-color="#000000"/></filter></defs><defs><filter id="my-svg-drop-shadow-small" height="150%" width="150%"><feDropShadow dx="2" dy="2" stdDeviation="0" flood-opacity="0.06" flood-color="#000000"/></filter></defs><linearGradient id="my-svg-gradient" gradientUnits="objectBoundingBox" x1="0%" y1="0%" x2="100%" y2="0%"><stop offset="0%" stop-color="hsl(0, 0%, 83.3333333333%)" stop-opacity="1"/><stop offset="100%" stop-color="hsl(0, 0%, 88.9215686275%)" stop-opacity="1"/></linearGradient></svg>